<?xml version="1.0" encoding="UTF-8"?>
<svg width="24px" height="24px" fill="#e8eaed" version="1.1" viewBox="0 -960 960 960" xml:space="preserve" xmlns="http://www.w3.org/2000/svg"><path d="M200-120q-33 0-56.5-23.5T120-200v-560q0-33 23.5-56.5T200-840h560q33 0 56.5 23.5T840-760v560q0 33-23.5 56.5T760-120H200Zm0-80h560v-560H200v560Zm0 0v-560 560Z"/><g transform="matrix(.66667 0 0 .66667 160 -160)" fill="#e8eaed"><path d="m120-120v-320h80v184l504-504h-184v-80h320v320h-80v-184l-504 504h184v80z"/></g></svg>
